<svg width="154" height="44" viewBox="0 0 154 44" fill="none" xmlns="http://www.w3.org/2000/svg">
<path d="M13.2844 23.1273C12.637 23.3787 11.9057 23.1045 11.5858 22.4875L5.64439 11.0465C4.95123 9.69061 5.47681 8.03768 6.83267 7.34452C6.91646 7.30643 6.99263 7.26834 7.07642 7.23026C8.60748 6.61327 10.2909 7.51209 10.7174 9.066L10.7251 9.08885L14.0995 21.5125C14.2747 22.1752 13.9243 22.876 13.2844 23.1273Z" fill="#F98500"/>
<path d="M12.9646 17.3611L11.2812 18.0238C10.9689 18.1381 10.6185 17.9857 10.489 17.6734C10.3671 17.3611 10.5195 17.0031 10.8318 16.8813L12.637 16.1729L12.9646 17.3611Z" fill="#FA6D00"/>
<path d="M13.6195 19.7452L12.1722 20.286C11.8599 20.3926 11.5171 20.2479 11.38 19.9356C11.2581 19.6233 11.4105 19.2653 11.7304 19.1434L13.2995 18.5569L13.6195 19.7452Z" fill="#FA6D00"/>
<path d="M20.4521 11.9375C19.9417 11.5871 19.6828 10.9701 19.797 10.3532C20.0788 8.93636 19.1648 7.55765 17.7404 7.26819C17.7251 7.26819 17.7023 7.26058 17.687 7.26058C17.1005 7.16155 16.613 6.74261 16.4302 6.17132C16.3845 6.03421 16.3312 5.8971 16.2703 5.76761C15.6228 4.47269 14.0536 3.9471 12.7587 4.59456C11.5324 5.20394 10.9839 6.65882 11.5019 7.92327C11.7685 8.57835 11.898 9.17249 11.4486 9.80472C10.6107 10.9854 10.8925 12.6231 12.0732 13.4534C12.0808 13.461 12.096 13.4686 12.1036 13.4762C12.614 13.8342 12.8578 14.4588 12.7359 15.0682C12.4617 16.485 13.391 17.8637 14.8154 18.1379C16.0951 18.3817 17.3519 17.658 17.7861 16.4317C19.081 17.0791 20.6501 16.5459 21.2976 15.2586C21.8765 14.0932 21.5185 12.684 20.4521 11.9375Z" fill="#598C44"/>
<path d="M26.3935 14.0324C26.0507 13.5144 26.0431 12.8441 26.3783 12.3185C27.1781 11.115 26.8429 9.48489 25.6394 8.68509C25.6242 8.67747 25.6089 8.66223 25.5937 8.65462C24.8472 8.18235 24.9005 7.51204 24.8396 6.7427C24.733 5.30306 23.4685 4.22141 22.0289 4.32806C20.6654 4.4347 19.6066 5.56966 19.6066 6.94075C19.6066 7.64915 19.4999 8.24329 18.8525 8.66223C17.6337 9.43919 17.2757 11.0616 18.0603 12.2804C18.0679 12.288 18.0755 12.3032 18.0831 12.3109C18.4183 12.8365 18.4183 13.5068 18.0679 14.0247C17.2833 15.2359 17.6261 16.8583 18.8372 17.6505C19.9265 18.3589 21.3738 18.1609 22.2269 17.1859C23.1867 18.2675 24.8396 18.3741 25.9212 17.422C26.8962 16.5689 27.0943 15.1216 26.3935 14.0324Z" fill="#5F9548"/>
<path d="M30.4687 21.3906L23.1562 18.9531L27.1857 6.87223C27.6732 5.41734 29.1586 4.29 30.7049 4.32809C31.6646 4.35094 32.5635 4.53375 33.3176 5.14312C34.5363 6.11812 35.0162 7.7482 34.5211 9.22594L30.4687 21.3906Z" fill="#FFB531"/>
<path d="M25.5938 15.2969V37.2344H7.3125V15.2969L9.14062 16.5156L10.9688 15.2969L12.7969 16.5156L14.625 15.2969L16.4531 16.5156L18.2812 15.2969L20.1094 16.5156L21.9375 15.2969L23.7656 16.5156L25.5938 15.2969Z" fill="#FFB531"/>
<path d="M25.5938 20.3469V37.2342H7.3125V33.5399C14.0232 31.2852 20.673 27.1795 25.5938 20.3469Z" fill="#FCAC1F"/>
<path d="M32.9062 15.2969V37.2344H25.5938V15.2969L27.4219 16.5156L29.25 15.2969L31.0781 16.5156L32.9062 15.2969Z" fill="#F98500"/>
<path d="M7.42676 39.6719C10.1191 39.6719 12.3018 37.4893 12.3018 34.7969C12.3018 32.1045 10.1191 29.9219 7.42676 29.9219C4.73437 29.9219 2.55176 32.1045 2.55176 34.7969C2.55176 37.4893 4.73437 39.6719 7.42676 39.6719Z" fill="#F35244"/>
<path d="M17.6719 26.875L18.2812 28.0938C17.5271 28.8479 17.2225 29.9447 17.4814 30.9883L17.6719 31.75H15.2344V30.8207C15.2344 29.1525 16.1789 27.6215 17.6719 26.875Z" fill="#5F9548"/>
<path d="M14.0995 39.6719C13.3301 39.6719 12.6446 39.1691 12.4237 38.4303L11.0526 33.8523C10.6717 32.5803 11.5096 31.1406 12.9188 31.1406C13.6044 31.1406 14.2366 31.4986 14.587 32.0852L15.8438 34.1875V37.9275C15.8438 38.8873 15.0592 39.6719 14.0995 39.6719Z" fill="#FA9F0C"/>
<path d="M18.8068 39.6719C19.5762 39.6719 20.2617 39.1691 20.4826 38.4303L21.8537 33.8523C22.2422 32.565 21.3891 31.1406 19.9875 31.1406C19.302 31.1406 18.6697 31.4986 18.3193 32.0852L17.0625 34.1875V37.9275C17.0625 38.8873 17.8471 39.6719 18.8068 39.6719Z" fill="#FA9F0C"/>
<path d="M16.4531 31.1406C17.4662 31.1406 18.2812 31.9557 18.2812 32.9688V37.8438C18.2812 38.8568 17.4662 39.6719 16.4531 39.6719C15.44 39.6719 14.625 38.8568 14.625 37.8438V32.9688C14.625 31.9557 15.44 31.1406 16.4531 31.1406Z" fill="#FFB531"/>
<path d="M33.6986 4.6708C32.5712 3.76436 31.025 3.49014 29.5548 3.9167C28.1228 4.33564 27.0488 5.34873 26.607 6.68174L24.1466 14.0704L23.8572 13.6438L22.8365 14.3218V11.8614L24.5275 10.7341L23.8496 9.721L22.8289 10.3989V7.60342H21.6101V10.3913L20.597 9.71338L19.9191 10.7265L21.6101 11.8538V14.3142L20.597 13.6362L19.9191 14.6493L20.856 15.2739L20.1019 15.7767L18.6089 14.7864C18.5404 14.7407 18.4718 14.7103 18.3957 14.695C18.4414 14.5808 18.5023 14.4665 18.5709 14.3599C19.0431 13.6362 19.0431 12.7069 18.5785 11.9757C18.1519 11.3282 18.1671 10.3608 18.6089 9.71338C18.7994 9.43916 19.5763 8.8831 19.782 8.60889C20.1857 8.07568 20.2314 7.46631 20.2771 6.93311C20.3076 6.51416 20.338 6.14854 20.5209 5.8667C21.1074 4.92979 22.349 4.64795 23.2859 5.23447C23.4839 5.35635 23.6515 5.51631 23.7962 5.6915C24.1238 6.10283 24.1543 6.51416 24.1923 7.07021C24.2076 7.26064 24.2228 7.46631 24.2457 7.67959L25.4568 7.52725C25.4339 7.34443 25.4187 7.16162 25.4111 6.98643C25.3654 6.32373 25.3121 5.6458 24.756 4.9374C23.6515 3.53584 21.6253 3.29971 20.2238 4.39658C19.9343 4.6251 19.683 4.89932 19.4849 5.21162C19.1498 5.74482 19.1041 6.32373 19.0584 6.82646C19.0507 6.94072 19.0431 7.04736 19.0279 7.154C18.6546 6.90264 18.2281 6.72744 17.7787 6.64365C17.413 6.58271 17.1084 6.32373 16.9941 5.97334C16.7275 5.14307 16.1486 4.45752 15.3716 4.06143C14.6099 3.65771 13.7187 3.58154 12.896 3.84814C11.6849 4.25186 10.8013 5.38682 10.6947 6.68936C10.6566 7.18447 10.7785 7.61865 10.9003 8.00713C10.3291 7.07021 9.3312 6.47607 8.23433 6.40752L8.25718 3.70342L7.03843 3.6958L7.02319 5.45537L6.29194 3.58154L5.17983 4.04619L5.91108 5.92002L4.70757 4.64033L3.82397 5.47061L5.67495 7.45107C4.66948 8.48701 4.43335 10.0409 5.10366 11.3206L6.36812 13.7581L7.44976 13.1944L6.1853 10.7569C5.64448 9.71338 6.04819 8.42607 7.09175 7.88525C8.1353 7.34443 9.42261 7.74814 9.96343 8.7917C10.032 8.92881 10.0853 9.06592 10.131 9.21826L10.1539 9.29443L8.18862 10.0638L8.63042 11.1987L10.4738 10.4827V10.4903C10.3595 10.9245 10.3291 11.3739 10.4052 11.8233L9.07983 12.3413L9.52163 13.4763L10.8318 12.9659C11.1365 13.4763 11.6621 13.9485 11.6621 13.9485L9.96343 14.6112L10.1615 15.1063L9.14839 15.7843L7.65542 14.794C7.37358 14.6036 7.00034 14.6798 6.80991 14.9616C6.74136 15.0606 6.71089 15.1825 6.71089 15.2968V28.0936H7.92964V16.4317L8.81323 17.0183C9.0189 17.1554 9.2855 17.1554 9.49116 17.0183L10.9841 16.028L12.4771 17.0183C12.6828 17.1554 12.9494 17.1554 13.155 17.0183L14.648 16.028L16.141 17.0183C16.3466 17.1554 16.6132 17.1554 16.8189 17.0183L18.3119 16.028L19.8048 17.0183C20.0105 17.1554 20.2771 17.1554 20.4828 17.0183L21.9757 16.028L23.4687 17.0183C23.6744 17.1554 23.941 17.1554 24.1466 17.0183L25.0302 16.4317V36.6249H22.5927V37.8436H32.9521C33.2873 37.8436 33.5615 37.5694 33.5615 37.2343V15.2968C33.5615 15.114 33.4777 14.9464 33.3406 14.8321L35.1459 9.42393C35.6714 7.70244 35.1078 5.80576 33.6986 4.6708ZM17.573 12.6612C17.6263 12.745 17.6644 12.8364 17.6873 12.9354L17.2683 13.5524L16.339 11.2673L17.1541 10.0638C16.9408 10.9397 17.0779 11.9147 17.573 12.6612ZM13.3226 15.4415C13.4826 14.794 13.3531 14.1161 12.9798 13.5677C12.6218 13.0497 12.0505 12.6917 11.7611 12.128C11.6087 11.831 11.5478 11.4882 11.5859 11.153C11.6773 10.4065 12.241 9.78193 12.3248 9.03545C12.3857 8.48701 12.1648 7.95381 12.0505 7.41299C11.7839 6.21709 12.538 5.00596 13.8253 4.94502C14.45 4.92217 15.0441 5.18877 15.4402 5.66865C15.7906 6.10283 15.9505 6.67412 16.3009 7.11592C16.5599 7.44346 16.9103 7.67959 17.3064 7.79385C17.6949 7.9081 18.1519 7.92334 18.4109 8.23564C17.9615 8.55557 17.5959 8.97451 17.3445 9.46963L16.4761 8.89072L15.7906 9.88096L14.7394 7.31396L13.6197 7.771L14.6632 10.3456L13.475 10.1171L13.2312 11.3054L15.1888 11.7472L16.141 13.9866L14.9527 13.7581L14.808 14.4741C14.8003 14.4817 13.6349 15.213 13.3226 15.4415ZM15.4402 15.1063L16.697 15.3653L16.7808 15.571L16.4533 15.7843L15.4402 15.1063ZM23.3011 15.472L23.7734 15.1521L23.5982 15.67L23.3011 15.472ZM26.2033 16.4317L27.0869 17.0183C27.2925 17.1554 27.5591 17.1554 27.7648 17.0183L28.6484 16.4317V33.319L26.2109 35.7565V16.4317H26.2033ZM32.297 16.4317V35.7565L29.8595 33.319V16.4317L30.7431 17.0183C30.9488 17.1554 31.2154 17.1554 31.421 17.0183L32.297 16.4317ZM29.2502 34.4388L31.4363 36.6249H27.064L29.2502 34.4388ZM33.9423 9.03545L31.8705 15.2511L31.0783 15.7767L29.5853 14.7864C29.3796 14.6493 29.113 14.6493 28.9074 14.7864L27.4144 15.7767C27.4144 15.7767 25.891 14.7636 25.8757 14.756C25.6777 14.6493 25.4339 14.6645 25.2511 14.7864L25.1597 14.8474L27.7572 7.0626C28.0771 6.11045 28.8541 5.39443 29.8976 5.08213C30.9793 4.76221 32.1142 4.96025 32.9369 5.61533C33.95 6.43799 34.3537 7.80147 33.9423 9.03545Z" fill="black"/>
<path d="M28.5293 8.61157L32.1869 8.0032L32.3868 9.20489L28.7292 9.81326L28.5293 8.61157Z" fill="black"/>
<path d="M27.3093 12.2659L30.967 11.6575L31.1668 12.8592L27.5092 13.4676L27.3093 12.2659Z" fill="black"/>
<path d="M19.9952 30.5312C19.3249 30.5236 18.6774 30.7902 18.2051 31.2701C18.1975 31.2625 18.1899 31.2548 18.1823 31.2396L18.0833 30.8359C18.0833 30.8283 18.0833 30.8283 18.0756 30.8207C17.8395 29.9904 18.3118 28.9392 18.7231 28.5279C18.9059 28.3451 18.9516 28.0556 18.8374 27.8271L18.228 26.6084C18.0756 26.3037 17.71 26.1818 17.4129 26.3341C15.7067 27.1796 14.6327 28.924 14.6403 30.8207V31.1482C14.4956 31.0416 14.3356 30.9425 14.1756 30.8511C12.995 30.2189 11.4639 30.615 10.7631 31.7271C10.3594 32.3746 10.2528 33.2505 10.4813 34.0199L11.2735 36.663C10.2223 38.773 7.66294 39.6337 5.55298 38.5902C3.46587 37.5543 2.59751 35.033 3.60298 32.9306C3.61821 32.9002 3.63345 32.8697 3.64868 32.8392L3.67153 34.9111L4.89028 34.8959L4.8522 32.3593L7.28208 32.4736L7.34302 31.2548L5.22544 31.1558C5.85767 30.7673 6.58892 30.5541 7.32778 30.5312C8.21138 30.5084 9.07974 30.7597 9.81099 31.2548L10.4889 30.2418C9.11782 29.3201 7.40395 29.0687 5.8272 29.5486L6.08618 28.9392L4.96645 28.4593L4.12856 30.4093C4.06763 30.455 3.99907 30.5084 3.93813 30.5617L2.07954 28.7031L1.2188 29.5638L3.09263 31.4377C3.05454 31.491 3.01645 31.5443 2.97837 31.5976L0.982666 32.4507L1.46255 33.5705L2.16333 33.2658C1.31782 36.1755 2.9936 39.2148 5.90337 40.0603C7.8229 40.6164 9.89478 40.0832 11.3116 38.6664C11.4563 38.5216 11.5934 38.3617 11.7229 38.2017L11.8448 38.5978C12.218 39.847 13.5282 40.5478 14.7774 40.1746C14.9526 40.1212 15.1125 40.0527 15.2725 39.9613C16.0114 40.3726 16.9102 40.3726 17.6491 39.9613C18.7764 40.6087 20.2161 40.2127 20.8635 39.0853C20.9549 38.933 21.0235 38.7654 21.0768 38.5902L22.4479 34.0123C22.5317 33.7076 22.5698 33.3877 22.5545 33.0677C22.5469 31.6738 21.4043 30.5312 19.9952 30.5312ZM17.4206 27.7357L17.5577 28.0099C17.0778 28.6726 16.735 29.64 16.7959 30.5541C16.6208 30.5236 16.1409 30.5007 15.8514 30.6074C15.9124 29.4572 16.4913 28.406 17.4206 27.7357ZM13.0102 38.255L11.6391 33.6771C11.5096 33.2429 11.5706 32.725 11.7838 32.3822C12.1342 31.8185 12.9797 31.6052 13.5891 31.9328C13.8786 32.0851 13.9928 32.1918 14.1071 32.3365C14.0538 32.5421 14.0233 32.7554 14.0233 32.9687V37.8437C14.0233 38.2627 14.1299 38.674 14.3356 39.0396C13.7491 39.1615 13.1778 38.8187 13.0102 38.255ZM15.2344 37.8437V32.9687C15.2344 32.2984 15.7829 31.75 16.4532 31.75C17.1235 31.75 17.6719 32.2984 17.6719 32.9687V37.8437C17.6719 38.514 17.1235 39.0625 16.4532 39.0625C15.7829 39.0625 15.2344 38.514 15.2344 37.8437ZM21.2749 33.6771L19.9038 38.255C19.7362 38.8187 19.1573 39.1615 18.5784 39.0396C18.784 38.674 18.8907 38.2627 18.8907 37.8437V32.9687C18.8907 32.7783 18.8678 32.5955 18.8221 32.4127C18.9821 32.1689 19.3477 31.75 19.9875 31.75C20.7264 31.75 21.3206 32.3517 21.3206 33.083C21.3358 33.281 21.3206 33.4867 21.2749 33.6771Z" fill="black"/>
<path d="M55.505 21.21C54.441 21.21 53.447 21.014 52.523 20.622C51.599 20.23 50.787 19.691 50.087 19.005C49.387 18.305 48.834 17.5 48.428 16.59C48.036 15.68 47.84 14.7 47.84 13.65C47.84 12.6 48.036 11.62 48.428 10.71C48.834 9.8 49.387 9.002 50.087 8.316C50.787 7.616 51.599 7.07 52.523 6.678C53.447 6.286 54.441 6.09 55.505 6.09C56.163 6.09 56.8 6.16 57.416 6.3C58.032 6.44 58.599 6.65 59.117 6.93C59.327 7.042 59.481 7.196 59.579 7.392C59.691 7.574 59.747 7.763 59.747 7.959C59.747 8.295 59.635 8.596 59.411 8.862C59.187 9.128 58.9 9.261 58.55 9.261C58.438 9.261 58.319 9.247 58.193 9.219C58.081 9.191 57.969 9.149 57.857 9.093C57.507 8.939 57.136 8.82 56.744 8.736C56.352 8.652 55.939 8.61 55.505 8.61C54.595 8.61 53.762 8.841 53.006 9.303C52.264 9.751 51.669 10.36 51.221 11.13C50.787 11.886 50.57 12.726 50.57 13.65C50.57 14.56 50.787 15.4 51.221 16.17C51.669 16.94 52.264 17.556 53.006 18.018C53.762 18.466 54.595 18.69 55.505 18.69C55.925 18.69 56.387 18.648 56.891 18.564C57.395 18.48 57.808 18.368 58.13 18.228L57.941 18.858V15.267L58.298 15.582H55.967C55.603 15.582 55.295 15.463 55.043 15.225C54.805 14.987 54.686 14.686 54.686 14.322C54.686 13.958 54.805 13.657 55.043 13.419C55.295 13.181 55.603 13.062 55.967 13.062H59.411C59.775 13.062 60.076 13.188 60.314 13.44C60.552 13.678 60.671 13.979 60.671 14.343V18.795C60.671 19.075 60.601 19.306 60.461 19.488C60.335 19.67 60.188 19.817 60.02 19.929C59.376 20.321 58.669 20.636 57.899 20.874C57.143 21.098 56.345 21.21 55.505 21.21ZM64.2471 21C63.8831 21 63.5821 20.881 63.3441 20.643C63.1061 20.391 62.9871 20.083 62.9871 19.719V11.046C62.9871 10.682 63.1061 10.381 63.3441 10.143C63.5821 9.891 63.8831 9.765 64.2471 9.765C64.6111 9.765 64.9121 9.891 65.1501 10.143C65.3881 10.381 65.5071 10.682 65.5071 11.046V13.02L65.3601 11.613C65.5141 11.277 65.7101 10.983 65.9481 10.731C66.2001 10.465 66.4801 10.248 66.7881 10.08C67.0961 9.898 67.4251 9.765 67.7751 9.681C68.1251 9.597 68.4751 9.555 68.8251 9.555C69.2451 9.555 69.5951 9.674 69.8751 9.912C70.1691 10.15 70.3161 10.43 70.3161 10.752C70.3161 11.214 70.1971 11.55 69.9591 11.76C69.7211 11.956 69.4621 12.054 69.1821 12.054C68.9161 12.054 68.6711 12.005 68.4471 11.907C68.2371 11.809 67.9921 11.76 67.7121 11.76C67.4601 11.76 67.2011 11.823 66.9351 11.949C66.6831 12.061 66.4451 12.243 66.2211 12.495C66.0111 12.747 65.8361 13.062 65.6961 13.44C65.5701 13.804 65.5071 14.238 65.5071 14.742V19.719C65.5071 20.083 65.3881 20.391 65.1501 20.643C64.9121 20.881 64.6111 21 64.2471 21ZM82.5199 15.393C82.5199 16.541 82.2609 17.556 81.7429 18.438C81.2389 19.306 80.5529 19.985 79.6849 20.475C78.8309 20.965 77.8719 21.21 76.8079 21.21C75.7439 21.21 74.7779 20.965 73.9099 20.475C73.0559 19.985 72.3699 19.306 71.8519 18.438C71.3479 17.556 71.0959 16.541 71.0959 15.393C71.0959 14.245 71.3479 13.237 71.8519 12.369C72.3699 11.487 73.0559 10.801 73.9099 10.311C74.7779 9.807 75.7439 9.555 76.8079 9.555C77.8719 9.555 78.8309 9.807 79.6849 10.311C80.5529 10.801 81.2389 11.487 81.7429 12.369C82.2609 13.237 82.5199 14.245 82.5199 15.393ZM79.9999 15.393C79.9999 14.679 79.8529 14.063 79.5589 13.545C79.2789 13.013 78.8939 12.6 78.4039 12.306C77.9279 12.012 77.3959 11.865 76.8079 11.865C76.2199 11.865 75.6809 12.012 75.1909 12.306C74.7149 12.6 74.3299 13.013 74.0359 13.545C73.7559 14.063 73.6159 14.679 73.6159 15.393C73.6159 16.093 73.7559 16.709 74.0359 17.241C74.3299 17.759 74.7149 18.165 75.1909 18.459C75.6809 18.753 76.2199 18.9 76.8079 18.9C77.3959 18.9 77.9279 18.753 78.4039 18.459C78.8939 18.165 79.2789 17.759 79.5589 17.241C79.8529 16.709 79.9999 16.093 79.9999 15.393ZM89.7234 9.555C90.5214 9.555 91.2144 9.639 91.8024 9.807C92.4044 9.975 92.8664 10.213 93.1884 10.521C93.5244 10.815 93.6924 11.172 93.6924 11.592C93.6924 11.872 93.6084 12.138 93.4404 12.39C93.2724 12.628 93.0274 12.747 92.7054 12.747C92.4814 12.747 92.2924 12.719 92.1384 12.663C91.9984 12.593 91.8724 12.509 91.7604 12.411C91.6484 12.313 91.5154 12.222 91.3614 12.138C91.2214 12.054 91.0044 11.991 90.7104 11.949C90.4304 11.893 90.2204 11.865 90.0804 11.865C89.3664 11.865 88.7574 12.019 88.2534 12.327C87.7634 12.635 87.3854 13.055 87.1194 13.587C86.8534 14.105 86.7204 14.707 86.7204 15.393C86.7204 16.065 86.8534 16.667 87.1194 17.199C87.3994 17.717 87.7774 18.13 88.2534 18.438C88.7434 18.746 89.3034 18.9 89.9334 18.9C90.2834 18.9 90.5844 18.879 90.8364 18.837C91.0884 18.795 91.2984 18.732 91.4664 18.648C91.6624 18.536 91.8374 18.417 91.9914 18.291C92.1454 18.165 92.3764 18.102 92.6844 18.102C93.0484 18.102 93.3284 18.221 93.5244 18.459C93.7204 18.683 93.8184 18.963 93.8184 19.299C93.8184 19.649 93.6224 19.971 93.2304 20.265C92.8384 20.545 92.3204 20.776 91.6764 20.958C91.0464 21.126 90.3604 21.21 89.6184 21.21C88.5124 21.21 87.5534 20.958 86.7414 20.454C85.9294 19.936 85.2994 19.236 84.8514 18.354C84.4174 17.472 84.2004 16.485 84.2004 15.393C84.2004 14.245 84.4314 13.237 84.8934 12.369C85.3694 11.487 86.0204 10.801 86.8464 10.311C87.6864 9.807 88.6454 9.555 89.7234 9.555ZM98.0085 19.719C98.0085 20.083 97.8895 20.391 97.6515 20.643C97.4135 20.881 97.1125 21 96.7485 21C96.3845 21 96.0835 20.881 95.8455 20.643C95.6075 20.391 95.4885 20.083 95.4885 19.719V11.046C95.4885 10.682 95.6075 10.381 95.8455 10.143C96.0835 9.891 96.3845 9.765 96.7485 9.765C97.1125 9.765 97.4135 9.891 97.6515 10.143C97.8895 10.381 98.0085 10.682 98.0085 11.046V19.719ZM96.7275 8.4C96.2515 8.4 95.9155 8.323 95.7195 8.169C95.5235 8.015 95.4255 7.742 95.4255 7.35V6.951C95.4255 6.545 95.5305 6.272 95.7405 6.132C95.9645 5.978 96.3005 5.901 96.7485 5.901C97.2385 5.901 97.5815 5.978 97.7775 6.132C97.9735 6.286 98.0715 6.559 98.0715 6.951V7.35C98.0715 7.756 97.9665 8.036 97.7565 8.19C97.5465 8.33 97.2035 8.4 96.7275 8.4ZM109.796 9.555C110.16 9.555 110.461 9.674 110.699 9.912C110.937 10.15 111.056 10.458 111.056 10.836V19.719C111.056 20.083 110.937 20.391 110.699 20.643C110.461 20.881 110.16 21 109.796 21C109.432 21 109.131 20.881 108.893 20.643C108.655 20.391 108.536 20.083 108.536 19.719V18.69L108.998 18.879C108.998 19.061 108.9 19.285 108.704 19.551C108.508 19.803 108.242 20.055 107.906 20.307C107.57 20.559 107.171 20.776 106.709 20.958C106.261 21.126 105.771 21.21 105.239 21.21C104.273 21.21 103.398 20.965 102.614 20.475C101.83 19.971 101.207 19.285 100.745 18.417C100.297 17.535 100.073 16.527 100.073 15.393C100.073 14.245 100.297 13.237 100.745 12.369C101.207 11.487 101.823 10.801 102.593 10.311C103.363 9.807 104.217 9.555 105.155 9.555C105.757 9.555 106.31 9.646 106.814 9.828C107.318 10.01 107.752 10.241 108.116 10.521C108.494 10.801 108.781 11.088 108.977 11.382C109.187 11.662 109.292 11.9 109.292 12.096L108.536 12.369V10.836C108.536 10.472 108.655 10.171 108.893 9.933C109.131 9.681 109.432 9.555 109.796 9.555ZM105.554 18.9C106.17 18.9 106.709 18.746 107.171 18.438C107.633 18.13 107.99 17.71 108.242 17.178C108.508 16.646 108.641 16.051 108.641 15.393C108.641 14.721 108.508 14.119 108.242 13.587C107.99 13.055 107.633 12.635 107.171 12.327C106.709 12.019 106.17 11.865 105.554 11.865C104.952 11.865 104.42 12.019 103.958 12.327C103.496 12.635 103.132 13.055 102.866 13.587C102.614 14.119 102.488 14.721 102.488 15.393C102.488 16.051 102.614 16.646 102.866 17.178C103.132 17.71 103.496 18.13 103.958 18.438C104.42 18.746 104.952 18.9 105.554 18.9ZM115.339 6.3C115.675 6.3 115.969 6.426 116.221 6.678C116.487 6.916 116.62 7.217 116.62 7.581V19.719C116.62 20.083 116.487 20.391 116.221 20.643C115.955 20.881 115.647 21 115.297 21C114.905 21 114.59 20.881 114.352 20.643C114.114 20.391 113.995 20.083 113.995 19.719V7.581C113.995 7.217 114.121 6.916 114.373 6.678C114.625 6.426 114.947 6.3 115.339 6.3ZM124.642 6.3C125.034 6.3 125.349 6.426 125.587 6.678C125.825 6.916 125.944 7.217 125.944 7.581V19.719C125.944 20.083 125.818 20.391 125.566 20.643C125.328 20.881 125.006 21 124.6 21C124.264 21 123.963 20.881 123.697 20.643C123.445 20.391 123.319 20.083 123.319 19.719V7.581C123.319 7.217 123.452 6.916 123.718 6.678C123.984 6.426 124.292 6.3 124.642 6.3ZM115.276 12.411H124.642V14.826H115.276V12.411ZM137.216 9.765C137.58 9.765 137.881 9.891 138.119 10.143C138.357 10.381 138.476 10.682 138.476 11.046V16.38C138.476 17.864 138.063 19.04 137.237 19.908C136.411 20.776 135.221 21.21 133.667 21.21C132.113 21.21 130.923 20.776 130.097 19.908C129.285 19.04 128.879 17.864 128.879 16.38V11.046C128.879 10.682 128.998 10.381 129.236 10.143C129.474 9.891 129.775 9.765 130.139 9.765C130.503 9.765 130.804 9.891 131.042 10.143C131.28 10.381 131.399 10.682 131.399 11.046V16.38C131.399 17.234 131.588 17.871 131.966 18.291C132.344 18.697 132.911 18.9 133.667 18.9C134.437 18.9 135.011 18.697 135.389 18.291C135.767 17.871 135.956 17.234 135.956 16.38V11.046C135.956 10.682 136.075 10.381 136.313 10.143C136.551 9.891 136.852 9.765 137.216 9.765ZM147.021 9.555C148.001 9.555 148.876 9.807 149.646 10.311C150.43 10.801 151.046 11.48 151.494 12.348C151.956 13.216 152.187 14.224 152.187 15.372C152.187 16.52 151.956 17.535 151.494 18.417C151.046 19.285 150.437 19.971 149.667 20.475C148.911 20.965 148.057 21.21 147.105 21.21C146.545 21.21 146.02 21.119 145.53 20.937C145.04 20.755 144.606 20.524 144.228 20.244C143.864 19.964 143.577 19.684 143.367 19.404C143.171 19.11 143.073 18.865 143.073 18.669L143.724 18.396V19.929C143.724 20.293 143.605 20.601 143.367 20.853C143.129 21.091 142.828 21.21 142.464 21.21C142.1 21.21 141.799 21.091 141.561 20.853C141.323 20.615 141.204 20.307 141.204 19.929V6.741C141.204 6.377 141.323 6.076 141.561 5.838C141.799 5.586 142.1 5.46 142.464 5.46C142.828 5.46 143.129 5.586 143.367 5.838C143.605 6.076 143.724 6.377 143.724 6.741V12.075L143.367 11.886C143.367 11.704 143.465 11.487 143.661 11.235C143.857 10.969 144.123 10.71 144.459 10.458C144.795 10.192 145.18 9.975 145.614 9.807C146.062 9.639 146.531 9.555 147.021 9.555ZM146.706 11.865C146.09 11.865 145.551 12.019 145.089 12.327C144.627 12.635 144.263 13.055 143.997 13.587C143.745 14.105 143.619 14.7 143.619 15.372C143.619 16.03 143.745 16.632 143.997 17.178C144.263 17.71 144.627 18.13 145.089 18.438C145.551 18.746 146.09 18.9 146.706 18.9C147.322 18.9 147.854 18.746 148.302 18.438C148.764 18.13 149.121 17.71 149.373 17.178C149.639 16.632 149.772 16.03 149.772 15.372C149.772 14.7 149.639 14.105 149.373 13.587C149.121 13.055 148.764 12.635 148.302 12.327C147.854 12.019 147.322 11.865 146.706 11.865Z" fill="#009833"/>
<path d="M52.698 40.14C51.9793 40.14 51.312 40.014 50.696 39.762C50.0893 39.5007 49.5527 39.1413 49.086 38.684C48.6287 38.2267 48.2693 37.6947 48.008 37.088C47.756 36.472 47.63 35.8093 47.63 35.1C47.63 34.3813 47.756 33.7187 48.008 33.112C48.2693 32.496 48.6287 31.9593 49.086 31.502C49.5527 31.0447 50.0893 30.69 50.696 30.438C51.312 30.186 51.9793 30.06 52.698 30.06C53.174 30.06 53.6313 30.116 54.07 30.228C54.518 30.3307 54.924 30.494 55.288 30.718C55.3813 30.7647 55.4467 30.83 55.484 30.914C55.5307 30.998 55.554 31.0867 55.554 31.18C55.554 31.3387 55.498 31.474 55.386 31.586C55.2833 31.698 55.162 31.754 55.022 31.754C54.966 31.754 54.91 31.7447 54.854 31.726C54.8073 31.7073 54.756 31.6887 54.7 31.67C54.4107 31.5207 54.098 31.404 53.762 31.32C53.426 31.2267 53.0713 31.18 52.698 31.18C51.9607 31.18 51.298 31.3527 50.71 31.698C50.1313 32.0433 49.674 32.51 49.338 33.098C49.002 33.686 48.834 34.3533 48.834 35.1C48.834 35.8373 49.002 36.5047 49.338 37.102C49.674 37.69 50.1313 38.1567 50.71 38.502C51.298 38.8473 51.9607 39.02 52.698 39.02C53.0713 39.02 53.454 38.9687 53.846 38.866C54.2473 38.7633 54.588 38.6327 54.868 38.474L54.77 38.81V35.856L54.994 36.052H52.852C52.6933 36.052 52.558 36.0007 52.446 35.898C52.3433 35.786 52.292 35.6507 52.292 35.492C52.292 35.3333 52.3433 35.2027 52.446 35.1C52.558 34.988 52.6933 34.932 52.852 34.932H55.4C55.568 34.932 55.7033 34.988 55.806 35.1C55.9087 35.212 55.96 35.3473 55.96 35.506V38.74C55.96 38.852 55.932 38.95 55.876 39.034C55.8293 39.118 55.764 39.188 55.68 39.244C55.26 39.5147 54.7933 39.734 54.28 39.902C53.776 40.0607 53.2487 40.14 52.698 40.14ZM58.6104 40C58.433 40 58.279 39.944 58.1484 39.832C58.027 39.72 57.9664 39.5847 57.9664 39.426V30.76C57.9664 30.6013 58.0177 30.4707 58.1204 30.368C58.2324 30.256 58.3677 30.2 58.5264 30.2H62.3904C62.913 30.2 63.3844 30.3213 63.8044 30.564C64.2244 30.7973 64.5557 31.124 64.7984 31.544C65.0504 31.9547 65.1764 32.4307 65.1764 32.972C65.1764 33.364 65.1017 33.7327 64.9524 34.078C64.803 34.414 64.5977 34.708 64.3364 34.96C64.075 35.2027 63.7764 35.3893 63.4404 35.52L63.1324 35.296C63.4497 35.3707 63.7344 35.506 63.9864 35.702C64.2384 35.8887 64.4437 36.1313 64.6024 36.43C64.761 36.7193 64.845 37.06 64.8544 37.452C64.873 37.7973 64.8964 38.0727 64.9244 38.278C64.9524 38.4833 64.9944 38.6467 65.0504 38.768C65.1064 38.88 65.1857 38.9687 65.2884 39.034C65.419 39.118 65.503 39.23 65.5404 39.37C65.587 39.51 65.5637 39.6453 65.4704 39.776C65.4144 39.86 65.335 39.9207 65.2324 39.958C65.1297 39.986 65.027 39.9953 64.9244 39.986C64.8217 39.9767 64.733 39.9487 64.6584 39.902C64.509 39.818 64.3644 39.6967 64.2244 39.538C64.0844 39.37 63.9677 39.132 63.8744 38.824C63.781 38.516 63.7344 38.096 63.7344 37.564C63.7344 37.2653 63.6877 37.018 63.5944 36.822C63.501 36.626 63.375 36.4673 63.2164 36.346C63.0577 36.2247 62.8804 36.1407 62.6844 36.094C62.4884 36.0473 62.2877 36.024 62.0824 36.024H58.9604L59.1284 35.772V39.426C59.1284 39.5847 59.0817 39.72 58.9884 39.832C58.895 39.944 58.769 40 58.6104 40ZM58.9604 35.016H62.3904C62.661 34.9973 62.913 34.904 63.1464 34.736C63.389 34.568 63.585 34.3347 63.7344 34.036C63.893 33.728 63.9724 33.3827 63.9724 33C63.9724 32.5053 63.8137 32.0947 63.4964 31.768C63.1884 31.4413 62.7964 31.278 62.3204 31.278H59.0164L59.1284 31.012V35.268L58.9604 35.016ZM76.1246 35.1C76.1246 35.8187 76.0079 36.486 75.7746 37.102C75.5413 37.7087 75.2146 38.2407 74.7946 38.698C74.3746 39.1553 73.8753 39.51 73.2966 39.762C72.7179 40.014 72.0879 40.14 71.4066 40.14C70.7159 40.14 70.0813 40.014 69.5026 39.762C68.9333 39.51 68.4386 39.1553 68.0186 38.698C67.5986 38.2407 67.2719 37.7087 67.0386 37.102C66.8053 36.486 66.6886 35.8187 66.6886 35.1C66.6886 34.372 66.8053 33.7047 67.0386 33.098C67.2719 32.482 67.5986 31.95 68.0186 31.502C68.4386 31.0447 68.9333 30.69 69.5026 30.438C70.0813 30.186 70.7159 30.06 71.4066 30.06C72.0879 30.06 72.7179 30.186 73.2966 30.438C73.8753 30.69 74.3746 31.0447 74.7946 31.502C75.2146 31.95 75.5413 32.482 75.7746 33.098C76.0079 33.7047 76.1246 34.372 76.1246 35.1ZM74.9206 35.1C74.9206 34.3347 74.7666 33.658 74.4586 33.07C74.1599 32.482 73.7493 32.02 73.2266 31.684C72.7039 31.348 72.0973 31.18 71.4066 31.18C70.7159 31.18 70.1046 31.348 69.5726 31.684C69.0499 32.02 68.6393 32.482 68.3406 33.07C68.0419 33.658 67.8926 34.3347 67.8926 35.1C67.8926 35.856 68.0419 36.5327 68.3406 37.13C68.6393 37.718 69.0499 38.18 69.5726 38.516C70.1046 38.852 70.7159 39.02 71.4066 39.02C72.0973 39.02 72.7039 38.852 73.2266 38.516C73.7493 38.18 74.1599 37.718 74.4586 37.13C74.7666 36.5327 74.9206 35.856 74.9206 35.1ZM85.038 30.844C85.1967 30.928 85.2853 31.054 85.304 31.222C85.332 31.39 85.29 31.544 85.178 31.684C85.094 31.8053 84.9867 31.8707 84.856 31.88C84.7253 31.8893 84.5947 31.8613 84.464 31.796C84.156 31.6093 83.8247 31.4647 83.47 31.362C83.1153 31.25 82.742 31.194 82.35 31.194C81.7993 31.194 81.2953 31.292 80.838 31.488C80.3807 31.6747 79.984 31.9407 79.648 32.286C79.312 32.6313 79.0507 33.042 78.864 33.518C78.6773 33.994 78.584 34.5213 78.584 35.1C78.584 35.716 78.682 36.2667 78.878 36.752C79.074 37.2373 79.34 37.6527 79.676 37.998C80.0213 38.334 80.418 38.5907 80.866 38.768C81.3233 38.9453 81.818 39.034 82.35 39.034C82.7327 39.034 83.1013 38.9827 83.456 38.88C83.8107 38.7773 84.1467 38.628 84.464 38.432C84.5947 38.3667 84.7253 38.3433 84.856 38.362C84.9867 38.3807 85.0987 38.446 85.192 38.558C85.304 38.7073 85.346 38.866 85.318 39.034C85.29 39.1927 85.2013 39.3093 85.052 39.384C84.8187 39.524 84.5527 39.6547 84.254 39.776C83.9553 39.888 83.6427 39.9767 83.316 40.042C82.9987 40.1073 82.6767 40.14 82.35 40.14C81.678 40.14 81.0433 40.0233 80.446 39.79C79.8487 39.5567 79.3213 39.2207 78.864 38.782C78.4067 38.3433 78.0427 37.816 77.772 37.2C77.5107 36.5747 77.38 35.8747 77.38 35.1C77.38 34.372 77.506 33.7047 77.758 33.098C78.01 32.4913 78.36 31.964 78.808 31.516C79.2653 31.068 79.7927 30.718 80.39 30.466C80.9967 30.214 81.65 30.088 82.35 30.088C82.8353 30.088 83.3067 30.1533 83.764 30.284C84.2307 30.4147 84.6553 30.6013 85.038 30.844ZM87.5654 30.2H92.5494C92.7081 30.2 92.8434 30.2513 92.9554 30.354C93.0674 30.4567 93.1234 30.5873 93.1234 30.746C93.1234 30.9047 93.0674 31.0353 92.9554 31.138C92.8434 31.2313 92.7081 31.278 92.5494 31.278H88.0414L88.1674 31.04V34.582L88.0274 34.428H91.9194C92.0781 34.428 92.2134 34.4793 92.3254 34.582C92.4374 34.6847 92.4934 34.8153 92.4934 34.974C92.4934 35.1327 92.4374 35.2633 92.3254 35.366C92.2134 35.4593 92.0781 35.506 91.9194 35.506H88.0694L88.1674 35.38V39.006L88.0834 38.908H92.5494C92.7081 38.908 92.8434 38.964 92.9554 39.076C93.0674 39.188 93.1234 39.314 93.1234 39.454C93.1234 39.6127 93.0674 39.7433 92.9554 39.846C92.8434 39.9487 92.7081 40 92.5494 40H87.5654C87.4068 40 87.2714 39.944 87.1594 39.832C87.0568 39.72 87.0054 39.5847 87.0054 39.426V30.76C87.0054 30.6013 87.0568 30.4707 87.1594 30.368C87.2714 30.256 87.4068 30.2 87.5654 30.2ZM95.6338 40C95.4565 40 95.3025 39.944 95.1718 39.832C95.0505 39.72 94.9898 39.5847 94.9898 39.426V30.76C94.9898 30.6013 95.0411 30.4707 95.1438 30.368C95.2558 30.256 95.3911 30.2 95.5498 30.2H99.4138C99.9365 30.2 100.408 30.3213 100.828 30.564C101.248 30.7973 101.579 31.124 101.822 31.544C102.074 31.9547 102.2 32.4307 102.2 32.972C102.2 33.364 102.125 33.7327 101.976 34.078C101.826 34.414 101.621 34.708 101.36 34.96C101.098 35.2027 100.8 35.3893 100.464 35.52L100.156 35.296C100.473 35.3707 100.758 35.506 101.01 35.702C101.262 35.8887 101.467 36.1313 101.626 36.43C101.784 36.7193 101.868 37.06 101.878 37.452C101.896 37.7973 101.92 38.0727 101.948 38.278C101.976 38.4833 102.018 38.6467 102.074 38.768C102.13 38.88 102.209 38.9687 102.312 39.034C102.442 39.118 102.526 39.23 102.564 39.37C102.61 39.51 102.587 39.6453 102.494 39.776C102.438 39.86 102.358 39.9207 102.256 39.958C102.153 39.986 102.05 39.9953 101.948 39.986C101.845 39.9767 101.756 39.9487 101.682 39.902C101.532 39.818 101.388 39.6967 101.248 39.538C101.108 39.37 100.991 39.132 100.898 38.824C100.804 38.516 100.758 38.096 100.758 37.564C100.758 37.2653 100.711 37.018 100.618 36.822C100.524 36.626 100.398 36.4673 100.24 36.346C100.081 36.2247 99.9038 36.1407 99.7078 36.094C99.5118 36.0473 99.3111 36.024 99.1058 36.024H95.9838L96.1518 35.772V39.426C96.1518 39.5847 96.1051 39.72 96.0118 39.832C95.9185 39.944 95.7925 40 95.6338 40ZM95.9838 35.016H99.4138C99.6845 34.9973 99.9365 34.904 100.17 34.736C100.412 34.568 100.608 34.3347 100.758 34.036C100.916 33.728 100.996 33.3827 100.996 33C100.996 32.5053 100.837 32.0947 100.52 31.768C100.212 31.4413 99.8198 31.278 99.3438 31.278H96.0398L96.1518 31.012V35.268L95.9838 35.016ZM110.141 30.144C110.3 30.144 110.431 30.2047 110.533 30.326C110.645 30.438 110.701 30.5687 110.701 30.718C110.701 30.774 110.692 30.8347 110.673 30.9C110.664 30.956 110.641 31.012 110.603 31.068L107.355 35.59L107.537 34.904V39.426C107.537 39.5847 107.481 39.72 107.369 39.832C107.267 39.944 107.141 40 106.991 40C106.823 40 106.683 39.944 106.571 39.832C106.469 39.72 106.417 39.5847 106.417 39.426V35.016L106.515 35.38L103.365 31.124C103.309 31.0493 103.267 30.9793 103.239 30.914C103.221 30.8393 103.211 30.7693 103.211 30.704C103.211 30.5453 103.277 30.4147 103.407 30.312C103.538 30.2 103.669 30.144 103.799 30.144C103.986 30.144 104.14 30.2327 104.261 30.41L107.159 34.386L106.893 34.344L109.679 30.424C109.801 30.2373 109.955 30.144 110.141 30.144Z" fill="#ADADAD"/>
</svg>
