<svg width="39" height="40" viewBox="0 0 39 40" fill="none" xmlns="http://www.w3.org/2000/svg">
<path d="M13.2844 21.1273C12.637 21.3787 11.9057 21.1045 11.5858 20.4875L5.64439 9.04647C4.95123 7.69061 5.47681 6.03768 6.83267 5.34452C6.91646 5.30643 6.99263 5.26834 7.07642 5.23026C8.60748 4.61327 10.2909 5.51209 10.7174 7.066L10.7251 7.08885L14.0995 19.5125C14.2747 20.1752 13.9243 20.876 13.2844 21.1273Z" fill="#F98500"/>
<path d="M12.9646 15.3611L11.2812 16.0238C10.9689 16.1381 10.6185 15.9857 10.489 15.6734C10.3671 15.3611 10.5195 15.0031 10.8318 14.8813L12.637 14.1729L12.9646 15.3611Z" fill="#FA6D00"/>
<path d="M13.6195 17.7452L12.1722 18.286C11.8599 18.3926 11.5171 18.2479 11.38 17.9356C11.2581 17.6233 11.4105 17.2653 11.7304 17.1434L13.2995 16.5569L13.6195 17.7452Z" fill="#FA6D00"/>
<path d="M20.4521 9.93753C19.9417 9.58714 19.6828 8.97015 19.797 8.35315C20.0788 6.93636 19.1648 5.55765 17.7404 5.26819C17.7251 5.26819 17.7023 5.26058 17.687 5.26058C17.1005 5.16155 16.613 4.74261 16.4302 4.17132C16.3845 4.03421 16.3312 3.8971 16.2703 3.76761C15.6228 2.47269 14.0536 1.9471 12.7587 2.59456C11.5324 3.20394 10.9839 4.65882 11.5019 5.92327C11.7685 6.57835 11.898 7.17249 11.4486 7.80472C10.6107 8.98538 10.8925 10.6231 12.0732 11.4534C12.0808 11.461 12.096 11.4686 12.1036 11.4762C12.614 11.8342 12.8578 12.4588 12.7359 13.0682C12.4617 14.485 13.391 15.8637 14.8154 16.1379C16.0951 16.3817 17.3519 15.658 17.7861 14.4317C19.081 15.0791 20.6501 14.5459 21.2976 13.2586C21.8765 12.0932 21.5185 10.684 20.4521 9.93753Z" fill="#598C44"/>
<path d="M26.3935 12.0324C26.0507 11.5144 26.0431 10.8441 26.3783 10.3185C27.1781 9.11497 26.8429 7.48489 25.6394 6.68509C25.6242 6.67747 25.6089 6.66223 25.5937 6.65462C24.8472 6.18235 24.9005 5.51204 24.8396 4.7427C24.733 3.30306 23.4685 2.22141 22.0289 2.32806C20.6654 2.4347 19.6066 3.56966 19.6066 4.94075C19.6066 5.64915 19.4999 6.24329 18.8525 6.66223C17.6337 7.43919 17.2757 9.06165 18.0603 10.2804C18.0679 10.288 18.0755 10.3032 18.0831 10.3109C18.4183 10.8365 18.4183 11.5068 18.0679 12.0247C17.2833 13.2359 17.6261 14.8583 18.8372 15.6505C19.9265 16.3589 21.3738 16.1609 22.2269 15.1859C23.1867 16.2675 24.8396 16.3741 25.9212 15.422C26.8962 14.5689 27.0943 13.1216 26.3935 12.0324Z" fill="#5F9548"/>
<path d="M30.4687 19.3906L23.1562 16.9531L27.1857 4.87223C27.6732 3.41734 29.1586 2.29 30.7049 2.32809C31.6646 2.35094 32.5635 2.53375 33.3176 3.14312C34.5363 4.11812 35.0162 5.7482 34.5211 7.22594L30.4687 19.3906Z" fill="#FFB531"/>
<path d="M25.5938 13.2969V35.2344H7.3125V13.2969L9.14062 14.5156L10.9688 13.2969L12.7969 14.5156L14.625 13.2969L16.4531 14.5156L18.2812 13.2969L20.1094 14.5156L21.9375 13.2969L23.7656 14.5156L25.5938 13.2969Z" fill="#FFB531"/>
<path d="M25.5938 18.3469V35.2342H7.3125V31.5399C14.0232 29.2852 20.673 25.1795 25.5938 18.3469Z" fill="#FCAC1F"/>
<path d="M32.9062 13.2969V35.2344H25.5938V13.2969L27.4219 14.5156L29.25 13.2969L31.0781 14.5156L32.9062 13.2969Z" fill="#F98500"/>
<path d="M7.42676 37.6719C10.1191 37.6719 12.3018 35.4893 12.3018 32.7969C12.3018 30.1045 10.1191 27.9219 7.42676 27.9219C4.73437 27.9219 2.55176 30.1045 2.55176 32.7969C2.55176 35.4893 4.73437 37.6719 7.42676 37.6719Z" fill="#F35244"/>
<path d="M17.6719 24.875L18.2812 26.0938C17.5271 26.8479 17.2225 27.9447 17.4814 28.9883L17.6719 29.75H15.2344V28.8207C15.2344 27.1525 16.1789 25.6215 17.6719 24.875Z" fill="#5F9548"/>
<path d="M14.0995 37.6719C13.3301 37.6719 12.6446 37.1691 12.4237 36.4303L11.0526 31.8523C10.6717 30.5803 11.5096 29.1406 12.9188 29.1406C13.6044 29.1406 14.2366 29.4986 14.587 30.0852L15.8438 32.1875V35.9275C15.8438 36.8873 15.0592 37.6719 14.0995 37.6719Z" fill="#FA9F0C"/>
<path d="M18.8068 37.6719C19.5762 37.6719 20.2617 37.1691 20.4826 36.4303L21.8537 31.8523C22.2422 30.565 21.3891 29.1406 19.9875 29.1406C19.302 29.1406 18.6697 29.4986 18.3193 30.0852L17.0625 32.1875V35.9275C17.0625 36.8873 17.8471 37.6719 18.8068 37.6719Z" fill="#FA9F0C"/>
<path d="M16.4531 29.1406C17.4662 29.1406 18.2812 29.9557 18.2812 30.9688V35.8438C18.2812 36.8568 17.4662 37.6719 16.4531 37.6719C15.44 37.6719 14.625 36.8568 14.625 35.8438V30.9688C14.625 29.9557 15.44 29.1406 16.4531 29.1406Z" fill="#FFB531"/>
<path d="M33.6986 2.6708C32.5712 1.76436 31.025 1.49014 29.5548 1.9167C28.1228 2.33564 27.0488 3.34873 26.607 4.68174L24.1466 12.0704L23.8572 11.6438L22.8365 12.3218V9.86143L24.5275 8.73408L23.8496 7.721L22.8289 8.39893V5.60342H21.6101V8.39131L20.597 7.71338L19.9191 8.72646L21.6101 9.85381V12.3142L20.597 11.6362L19.9191 12.6493L20.856 13.2739L20.1019 13.7767L18.6089 12.7864C18.5404 12.7407 18.4718 12.7103 18.3957 12.695C18.4414 12.5808 18.5023 12.4665 18.5709 12.3599C19.0431 11.6362 19.0431 10.7069 18.5785 9.97568C18.1519 9.32822 18.1671 8.36084 18.6089 7.71338C18.7994 7.43916 19.5763 6.8831 19.782 6.60889C20.1857 6.07568 20.2314 5.46631 20.2771 4.93311C20.3076 4.51416 20.338 4.14854 20.5209 3.8667C21.1074 2.92979 22.349 2.64795 23.2859 3.23447C23.4839 3.35635 23.6515 3.51631 23.7962 3.6915C24.1238 4.10283 24.1543 4.51416 24.1923 5.07021C24.2076 5.26064 24.2228 5.46631 24.2457 5.67959L25.4568 5.52725C25.4339 5.34443 25.4187 5.16162 25.4111 4.98643C25.3654 4.32373 25.3121 3.6458 24.756 2.9374C23.6515 1.53584 21.6253 1.29971 20.2238 2.39658C19.9343 2.6251 19.683 2.89932 19.4849 3.21162C19.1498 3.74482 19.1041 4.32373 19.0584 4.82646C19.0507 4.94072 19.0431 5.04736 19.0279 5.154C18.6546 4.90264 18.2281 4.72744 17.7787 4.64365C17.413 4.58271 17.1084 4.32373 16.9941 3.97334C16.7275 3.14307 16.1486 2.45752 15.3716 2.06143C14.6099 1.65771 13.7187 1.58154 12.896 1.84814C11.6849 2.25186 10.8013 3.38682 10.6947 4.68936C10.6566 5.18447 10.7785 5.61865 10.9003 6.00713C10.3291 5.07021 9.3312 4.47607 8.23433 4.40752L8.25718 1.70342L7.03843 1.6958L7.02319 3.45537L6.29194 1.58154L5.17983 2.04619L5.91108 3.92002L4.70757 2.64033L3.82397 3.47061L5.67495 5.45107C4.66948 6.48701 4.43335 8.04092 5.10366 9.32061L6.36812 11.7581L7.44976 11.1944L6.1853 8.75693C5.64448 7.71338 6.04819 6.42607 7.09175 5.88525C8.1353 5.34443 9.42261 5.74814 9.96343 6.7917C10.032 6.92881 10.0853 7.06592 10.131 7.21826L10.1539 7.29443L8.18862 8.06377L8.63042 9.19873L10.4738 8.48271V8.49033C10.3595 8.92451 10.3291 9.37393 10.4052 9.82334L9.07983 10.3413L9.52163 11.4763L10.8318 10.9659C11.1365 11.4763 11.6621 11.9485 11.6621 11.9485L9.96343 12.6112L10.1615 13.1063L9.14839 13.7843L7.65542 12.794C7.37358 12.6036 7.00034 12.6798 6.80991 12.9616C6.74136 13.0606 6.71089 13.1825 6.71089 13.2968V26.0936H7.92964V14.4317L8.81323 15.0183C9.0189 15.1554 9.2855 15.1554 9.49116 15.0183L10.9841 14.028L12.4771 15.0183C12.6828 15.1554 12.9494 15.1554 13.155 15.0183L14.648 14.028L16.141 15.0183C16.3466 15.1554 16.6132 15.1554 16.8189 15.0183L18.3119 14.028L19.8048 15.0183C20.0105 15.1554 20.2771 15.1554 20.4828 15.0183L21.9757 14.028L23.4687 15.0183C23.6744 15.1554 23.941 15.1554 24.1466 15.0183L25.0302 14.4317V34.6249H22.5927V35.8436H32.9521C33.2873 35.8436 33.5615 35.5694 33.5615 35.2343V13.2968C33.5615 13.114 33.4777 12.9464 33.3406 12.8321L35.1459 7.42393C35.6714 5.70244 35.1078 3.80576 33.6986 2.6708ZM17.573 10.6612C17.6263 10.745 17.6644 10.8364 17.6873 10.9354L17.2683 11.5524L16.339 9.26728L17.1541 8.06377C16.9408 8.93975 17.0779 9.91475 17.573 10.6612ZM13.3226 13.4415C13.4826 12.794 13.3531 12.1161 12.9798 11.5677C12.6218 11.0497 12.0505 10.6917 11.7611 10.128C11.6087 9.83096 11.5478 9.48818 11.5859 9.15303C11.6773 8.40654 12.241 7.78193 12.3248 7.03545C12.3857 6.48701 12.1648 5.95381 12.0505 5.41299C11.7839 4.21709 12.538 3.00596 13.8253 2.94502C14.45 2.92217 15.0441 3.18877 15.4402 3.66865C15.7906 4.10283 15.9505 4.67412 16.3009 5.11592C16.5599 5.44346 16.9103 5.67959 17.3064 5.79385C17.6949 5.9081 18.1519 5.92334 18.4109 6.23564C17.9615 6.55557 17.5959 6.97451 17.3445 7.46963L16.4761 6.89072L15.7906 7.88096L14.7394 5.31396L13.6197 5.771L14.6632 8.3456L13.475 8.11709L13.2312 9.30537L15.1888 9.74717L16.141 11.9866L14.9527 11.7581L14.808 12.4741C14.8003 12.4817 13.6349 13.213 13.3226 13.4415ZM15.4402 13.1063L16.697 13.3653L16.7808 13.571L16.4533 13.7843L15.4402 13.1063ZM23.3011 13.472L23.7734 13.1521L23.5982 13.67L23.3011 13.472ZM26.2033 14.4317L27.0869 15.0183C27.2925 15.1554 27.5591 15.1554 27.7648 15.0183L28.6484 14.4317V31.319L26.2109 33.7565V14.4317H26.2033ZM32.297 14.4317V33.7565L29.8595 31.319V14.4317L30.7431 15.0183C30.9488 15.1554 31.2154 15.1554 31.421 15.0183L32.297 14.4317ZM29.2502 32.4388L31.4363 34.6249H27.064L29.2502 32.4388ZM33.9423 7.03545L31.8705 13.2511L31.0783 13.7767L29.5853 12.7864C29.3796 12.6493 29.113 12.6493 28.9074 12.7864L27.4144 13.7767C27.4144 13.7767 25.891 12.7636 25.8757 12.756C25.6777 12.6493 25.4339 12.6645 25.2511 12.7864L25.1597 12.8474L27.7572 5.0626C28.0771 4.11045 28.8541 3.39443 29.8976 3.08213C30.9793 2.76221 32.1142 2.96025 32.9369 3.61533C33.95 4.43799 34.3537 5.80147 33.9423 7.03545Z" fill="black"/>
<path d="M28.5293 6.61157L32.1869 6.0032L32.3868 7.20489L28.7292 7.81326L28.5293 6.61157Z" fill="black"/>
<path d="M27.3093 10.2659L30.967 9.6575L31.1668 10.8592L27.5092 11.4676L27.3093 10.2659Z" fill="black"/>
<path d="M19.9952 28.5312C19.3249 28.5236 18.6774 28.7902 18.2051 29.2701C18.1975 29.2625 18.1899 29.2548 18.1823 29.2396L18.0833 28.8359C18.0833 28.8283 18.0833 28.8283 18.0756 28.8207C17.8395 27.9904 18.3118 26.9392 18.7231 26.5279C18.9059 26.3451 18.9516 26.0556 18.8374 25.8271L18.228 24.6084C18.0756 24.3037 17.71 24.1818 17.4129 24.3341C15.7067 25.1796 14.6327 26.924 14.6403 28.8207V29.1482C14.4956 29.0416 14.3356 28.9425 14.1756 28.8511C12.995 28.2189 11.4639 28.615 10.7631 29.7271C10.3594 30.3746 10.2528 31.2505 10.4813 32.0199L11.2735 34.663C10.2223 36.773 7.66294 37.6337 5.55298 36.5902C3.46587 35.5543 2.59751 33.033 3.60298 30.9306C3.61821 30.9002 3.63345 30.8697 3.64868 30.8392L3.67153 32.9111L4.89028 32.8959L4.8522 30.3593L7.28208 30.4736L7.34302 29.2548L5.22544 29.1558C5.85767 28.7673 6.58892 28.5541 7.32778 28.5312C8.21138 28.5084 9.07974 28.7597 9.81099 29.2548L10.4889 28.2418C9.11782 27.3201 7.40395 27.0687 5.8272 27.5486L6.08618 26.9392L4.96645 26.4593L4.12856 28.4093C4.06763 28.455 3.99907 28.5084 3.93813 28.5617L2.07954 26.7031L1.2188 27.5638L3.09263 29.4377C3.05454 29.491 3.01645 29.5443 2.97837 29.5976L0.982666 30.4507L1.46255 31.5705L2.16333 31.2658C1.31782 34.1755 2.9936 37.2148 5.90337 38.0603C7.8229 38.6164 9.89478 38.0832 11.3116 36.6664C11.4563 36.5216 11.5934 36.3617 11.7229 36.2017L11.8448 36.5978C12.218 37.847 13.5282 38.5478 14.7774 38.1746C14.9526 38.1212 15.1125 38.0527 15.2725 37.9613C16.0114 38.3726 16.9102 38.3726 17.6491 37.9613C18.7764 38.6087 20.2161 38.2127 20.8635 37.0853C20.9549 36.933 21.0235 36.7654 21.0768 36.5902L22.4479 32.0123C22.5317 31.7076 22.5698 31.3877 22.5545 31.0677C22.5469 29.6738 21.4043 28.5312 19.9952 28.5312ZM17.4206 25.7357L17.5577 26.0099C17.0778 26.6726 16.735 27.64 16.7959 28.5541C16.6208 28.5236 16.1409 28.5007 15.8514 28.6074C15.9124 27.4572 16.4913 26.406 17.4206 25.7357ZM13.0102 36.255L11.6391 31.6771C11.5096 31.2429 11.5706 30.725 11.7838 30.3822C12.1342 29.8185 12.9797 29.6052 13.5891 29.9328C13.8786 30.0851 13.9928 30.1918 14.1071 30.3365C14.0538 30.5421 14.0233 30.7554 14.0233 30.9687V35.8437C14.0233 36.2627 14.1299 36.674 14.3356 37.0396C13.7491 37.1615 13.1778 36.8187 13.0102 36.255ZM15.2344 35.8437V30.9687C15.2344 30.2984 15.7829 29.75 16.4532 29.75C17.1235 29.75 17.6719 30.2984 17.6719 30.9687V35.8437C17.6719 36.514 17.1235 37.0625 16.4532 37.0625C15.7829 37.0625 15.2344 36.514 15.2344 35.8437ZM21.2749 31.6771L19.9038 36.255C19.7362 36.8187 19.1573 37.1615 18.5784 37.0396C18.784 36.674 18.8907 36.2627 18.8907 35.8437V30.9687C18.8907 30.7783 18.8678 30.5955 18.8221 30.4127C18.9821 30.1689 19.3477 29.75 19.9875 29.75C20.7264 29.75 21.3206 30.3517 21.3206 31.083C21.3358 31.281 21.3206 31.4867 21.2749 31.6771Z" fill="black"/>
</svg>
